<svg xmlns="http://www.w3.org/2000/svg" fill="none" viewBox="0 0 24 24" stroke-width="1.5" stroke="currentColor">
  <path stroke-linecap="round" stroke-linejoin="round" d="M6.633 10.25c.806 0 1.533-.446 2.031-1.08a9.041 9.041 0 0 1 2.861-2.4c.723-.384 1.35-.956 1.653-1.715a4.498 4.498 0 0 0 .322-1.672V2.75a.75.75 0 0 1 .75-.75 2.25 2.25 0 0 1 2.25 2.25c0 1.152-.26 2.243-.723 3.218-.266.558.107 1.282.725 1.282m0 0h3.126c1.026 0 1.945.694 2.054 1.715.045.422.068.85.068 1.285a11.95 11.95 0 0 1-2.649 7.521c-.388.482-.987.729-1.605.729H13.48a4.53 4.53 0 0 1-1.423-.23l-3.114-1.04a4.501 4.501 0 0 0-1.423-.23H5.904m12.125 0v-.074c0-.497-.038-.992-.111-1.478-.073-.486-.213-.943-.42-1.36l-.008-.016c-.073-.143-.168-.279-.283-.403a3.003 3.003 0 0 0-.42-.394 4.5 4.5 0 0 0-.56-.315 3.75 3.75 0 0 0-.636-.246" />
</svg>
